<svg id="logo" data-name="logo" xmlns="http://www.w3.org/2000/svg" viewBox="0 0 397 397"><defs><style>.cls-1{fill:#53ba65;stroke:#177139;}.cls-1,.cls-2,.cls-4{stroke-miterlimit:10;}.cls-1,.cls-2{stroke-width:17px;}.cls-2{fill:none;stroke:#fff;}.cls-3{opacity:0.91;}.cls-4{fill:#fff;stroke:#19713a;stroke-width:7px;}</style></defs><title>logo-theclearcoder</title><circle class="cls-1" cx="198.5" cy="198.5" r="190"/><circle class="cls-2" cx="198.5" cy="198.5" r="172.5"/><g class="cls-3"><path class="cls-4" d="M133.73,276c-15,0-23.6-6-30-19l-18.4-37.2c-3.4-6.8-5.4-13.2-5.4-21,0-8.8,1.6-14.2,5.6-22.2l18.4-37c6.8-13.8,15.4-19.2,30.8-19.2h34c4.4,0,10,2.4,10,10,0,7.2-5.4,10-10,10h-33.4c-8.6,0-10,.8-13.8,8.4l-17.4,34.8c-2.6,5.4-4.2,9-4.2,15.2,0,5.6,1.8,9,4.2,13.8l17,34.6c4,8.2,6,8.8,15,8.8h32.6c4.4,0,10,2.4,10,10,0,7.2-5.4,10-10,10Z" transform="translate(-1.5 -1.5)"/></g><g class="cls-3"><path class="cls-4" d="M251.73,276c-15,0-23.6-6-30-19l-18.4-37.2c-3.4-6.8-5.4-13.2-5.4-21,0-8.8,1.6-14.2,5.6-22.2l18.4-37c6.8-13.8,15.4-19.2,30.8-19.2h34c4.4,0,10,2.4,10,10,0,7.2-5.4,10-10,10h-33.4c-8.6,0-10,.8-13.8,8.4l-17.4,34.8c-2.6,5.4-4.2,9-4.2,15.2,0,5.6,1.8,9,4.2,13.8l17,34.6c4,8.2,6,8.8,15,8.8h32.6c4.4,0,10,2.4,10,10,0,7.2-5.4,10-10,10Z" transform="translate(-1.5 -1.5)"/></g></svg>
